<?xml version="1.0" encoding="UTF-8" standalone="no"?>
<!-- Created with Inkscape (http://www.inkscape.org/) -->

<svg
   xmlns:dc="http://purl.org/dc/elements/1.1/"
   xmlns:cc="http://creativecommons.org/ns#"
   xmlns:rdf="http://www.w3.org/1999/02/22-rdf-syntax-ns#"
   xmlns:svg="http://www.w3.org/2000/svg"
   xmlns="http://www.w3.org/2000/svg"
   xmlns:sodipodi="http://sodipodi.sourceforge.net/DTD/sodipodi-0.dtd"
   xmlns:inkscape="http://www.inkscape.org/namespaces/inkscape"
   id="svg3387"
   version="1.1"
   inkscape:version="0.91 r13725"
   width="242.02477"
   height="495.03995"
   viewBox="0 0 242.02477 495.03995"
   sodipodi:docname="PE11-11706.svg">
  <title
     id="title3333">Silhouette Femme 03</title>
  <metadata
     id="metadata3393">
    <rdf:RDF>
      <cc:Work
         rdf:about="">
        <dc:format>image/svg+xml</dc:format>
        <dc:type
           rdf:resource="http://purl.org/dc/dcmitype/StillImage" />
        <dc:title>Silhouette Femme 03</dc:title>
        <cc:license
           rdf:resource="http://creativecommons.org/publicdomain/zero/1.0/" />
        <dc:date>2017-02-11</dc:date>
        <dc:creator>
          <cc:Agent>
            <dc:title>JLouis</dc:title>
          </cc:Agent>
        </dc:creator>
        <dc:rights>
          <cc:Agent>
            <dc:title>Domaine pubic</dc:title>
          </cc:Agent>
        </dc:rights>
        <dc:publisher>
          <cc:Agent>
            <dc:title>inkscape</dc:title>
          </cc:Agent>
        </dc:publisher>
        <dc:subject>
          <rdf:Bag>
            <rdf:li>Silhouette</rdf:li>
            <rdf:li>woman</rdf:li>
            <rdf:li>femme</rdf:li>
          </rdf:Bag>
        </dc:subject>
        <dc:description>Woman in silhouette - Femme en silhouette</dc:description>
      </cc:Work>
      <cc:License
         rdf:about="http://creativecommons.org/publicdomain/zero/1.0/">
        <cc:permits
           rdf:resource="http://creativecommons.org/ns#Reproduction" />
        <cc:permits
           rdf:resource="http://creativecommons.org/ns#Distribution" />
        <cc:permits
           rdf:resource="http://creativecommons.org/ns#DerivativeWorks" />
      </cc:License>
    </rdf:RDF>
  </metadata>
  <defs
     id="defs3391" />
  <sodipodi:namedview
     pagecolor="#ffffff"
     bordercolor="#666666"
     borderopacity="1"
     objecttolerance="10"
     gridtolerance="10"
     guidetolerance="10"
     inkscape:pageopacity="0"
     inkscape:pageshadow="2"
     inkscape:window-width="1235"
     inkscape:window-height="756"
     id="namedview3389"
     showgrid="false"
     fit-margin-top="20"
     fit-margin-bottom="20"
     fit-margin-right="20"
     fit-margin-left="20"
     inkscape:zoom="1.1894737"
     inkscape:cx="153.83477"
     inkscape:cy="247.23234"
     inkscape:window-x="45"
     inkscape:window-y="0"
     inkscape:window-maximized="1"
     inkscape:current-layer="svg3387" />
  <path
     style="fill:#fa9491"
     d="m 136.00809,474.65074 c -8.15249,-10.4086 8.89805,-27.51129 0.20729,-41.40046 -4.44489,-17.50996 -15.56613,-32.47287 -27.52764,-45.6395 -5.30514,-7.77454 -4.46888,19.06869 -5.72972,23.98725 2.73779,12.18573 3.15699,25.05647 3.95349,37.74333 2.81476,10.99954 -14.112225,12.21669 -16.467744,21.99754 -16.981675,11.06212 -30.762265,-12.9421 -11.065735,-19.71901 -0.752028,-6.27959 10.505894,-21.6619 6.98767,-28.23633 -1.671874,-22.4435 -8.672346,-44.35001 -7.334406,-67.0932 0.72667,-16.25809 -3.651725,-33.24831 -9.928344,-47.50732 -11.498806,-2.49756 -34.001871,-1.88008 -23.666452,-19.59649 3.641508,-20.47109 8.267442,-40.7463 14.191841,-60.66774 -12.235871,5.75793 -17.629413,29.47843 -30.126384,38.72645 -15.937391,-0.62581 -8.860024,-28.73737 5.786285,-25.71455 C 36.420666,225.31952 51.3252,215.04787 57.852923,200.58686 66.435111,185.76945 78.864837,172.12842 69.64229,154.3181 71.544641,135.94103 89.531689,121.91254 85.188272,102.66923 78.598766,91.751933 84.008525,73.078539 83.320606,59.221414 83.760767,44.510303 88.116882,22.899528 105.26729,20.157766 c 18.98769,1.079999 29.10388,19.677833 31.67881,36.574076 1.96391,17.739932 10.0104,35.431508 24.92158,45.897358 13.71093,16.66097 8.40718,40.23937 18.45929,58.6978 8.88052,14.79343 16.20835,30.38446 21.3941,46.93744 4.06641,15.07122 15.25243,26.92131 20.12327,41.38766 8.73132,15.11973 -21.66143,27.92075 -15.5303,7.73287 -4.6306,-16.68784 -8.62553,-34.4474 -22.27685,-46.84064 -11.17478,-13.31889 -19.68693,-28.85856 -23.26713,-45.97593 -1.5464,-7.68448 -7.76464,-17.85901 -6.15208,-3.34325 -3.20586,14.76417 -28.70109,23.47699 -19.64456,42.15484 4.95463,34.47468 3.41506,69.51045 2.83978,104.24152 1.61275,9.08067 -3.75475,10.67984 -11.52826,9.3592 -7.6461,-2.13183 -10.64131,2.42601 -11.99807,9.34054 -12.91796,18.34692 6.34073,30.77732 15.65244,44.3314 7.44918,16.60887 14.21661,32.97558 24.20273,46.82589 15.46528,14.22668 10.532,33.61637 5.89159,51.45862 -4.71044,7.48062 -16.41452,5.8869 -24.02554,5.71358 z"
     id="path3397"
     inkscape:connector-curvature="0" />
</svg>
